<mxfile host="app.diagrams.net" modified="2020-09-15T13:57:05.495Z" agent="5.0 (Windows NT 10.0; Win64; x64) AppleWebKit/537.36 (KHTML, like Gecko) Chrome/85.0.4183.102 Safari/537.36" etag="M_rLDPxx_0y6KL39_XSH" version="13.6.10" type="github">
  <diagram id="dLiCsf6XBlpKmU3ovjeW" name="Page-1">
    <mxGraphModel dx="3472" dy="1968" grid="1" gridSize="10" guides="1" tooltips="1" connect="1" arrows="1" fold="1" page="1" pageScale="1" pageWidth="4681" pageHeight="3300" background="#FFFFFF" math="0" shadow="0">
      <root>
        <mxCell id="0" />
        <mxCell id="1" parent="0" />
        <mxCell id="ET13ZjsiotVya5PtHg1d-84" value="" style="rounded=0;whiteSpace=wrap;html=1;strokeColor=#000000;fillColor=#ffeaa7;" parent="1" vertex="1">
          <mxGeometry x="190" y="1180" width="820" height="950" as="geometry" />
        </mxCell>
        <mxCell id="ET13ZjsiotVya5PtHg1d-68" value="" style="rounded=0;whiteSpace=wrap;html=1;strokeColor=#000000;fillColor=#ffeaa7;" parent="1" vertex="1">
          <mxGeometry x="1280" y="1180" width="650" height="1740" as="geometry" />
        </mxCell>
        <mxCell id="ET13ZjsiotVya5PtHg1d-54" value="" style="ellipse;whiteSpace=wrap;html=1;aspect=fixed;fillColor=#ffeaa7;" parent="1" vertex="1">
          <mxGeometry x="2260" y="1420" width="1230" height="1230" as="geometry" />
        </mxCell>
        <mxCell id="ET13ZjsiotVya5PtHg1d-50" value="" style="ellipse;whiteSpace=wrap;html=1;aspect=fixed;fillColor=#ffeaa7;" parent="1" vertex="1">
          <mxGeometry x="135" y="70" width="920" height="920" as="geometry" />
        </mxCell>
        <mxCell id="ET13ZjsiotVya5PtHg1d-48" value="" style="endArrow=none;html=1;exitX=0.707;exitY=0.409;exitDx=0;exitDy=0;exitPerimeter=0;strokeWidth=3;entryX=1;entryY=0.5;entryDx=0;entryDy=0;entryPerimeter=0;" parent="1" source="ET13ZjsiotVya5PtHg1d-40" target="ET13ZjsiotVya5PtHg1d-43" edge="1">
          <mxGeometry width="50" height="50" relative="1" as="geometry">
            <mxPoint x="2725" y="2066.16" as="sourcePoint" />
            <mxPoint x="2935" y="1696.16" as="targetPoint" />
            <Array as="points">
              <mxPoint x="2875" y="2091.16" />
              <mxPoint x="2875" y="1810.16" />
            </Array>
          </mxGeometry>
        </mxCell>
        <mxCell id="ET13ZjsiotVya5PtHg1d-49" value="" style="endArrow=none;html=1;strokeWidth=3;exitX=0.5;exitY=0;exitDx=0;exitDy=0;exitPerimeter=0;entryX=0.708;entryY=0.682;entryDx=0;entryDy=0;entryPerimeter=0;" parent="1" source="ET13ZjsiotVya5PtHg1d-42" target="ET13ZjsiotVya5PtHg1d-40" edge="1">
          <mxGeometry width="50" height="50" relative="1" as="geometry">
            <mxPoint x="2735" y="1956.16" as="sourcePoint" />
            <mxPoint x="2675" y="2166.16" as="targetPoint" />
            <Array as="points">
              <mxPoint x="2880" y="2121" />
            </Array>
          </mxGeometry>
        </mxCell>
        <mxCell id="ET13ZjsiotVya5PtHg1d-6" value="&lt;p&gt;&lt;font style=&quot;font-size: 20px&quot; face=&quot;Tahoma&quot;&gt;&lt;b&gt;AMPLIFICADOR DE DISTRIBUIÇÃO SATELITAL - ISDB T&lt;/b&gt;&lt;/font&gt;&lt;/p&gt;" style="rounded=1;whiteSpace=wrap;html=1;" parent="1" vertex="1">
          <mxGeometry x="270" y="1340" width="640" height="60" as="geometry" />
        </mxCell>
        <mxCell id="ET13ZjsiotVya5PtHg1d-7" value="&lt;p&gt;&lt;font size=&quot;1&quot; face=&quot;Tahoma&quot;&gt;&lt;b style=&quot;font-size: 20px&quot;&gt;AMPLIFICADOR&lt;/b&gt;&lt;/font&gt;&lt;b style=&quot;font-family: &amp;#34;tahoma&amp;#34; ; font-size: 20px&quot;&gt;&amp;nbsp;DE DISTRIBUIÇÃO SATELITAL - C2 V&lt;/b&gt;&lt;/p&gt;" style="rounded=1;whiteSpace=wrap;html=1;" parent="1" vertex="1">
          <mxGeometry x="270" y="1500" width="640" height="60" as="geometry" />
        </mxCell>
        <mxCell id="ET13ZjsiotVya5PtHg1d-8" value="&lt;p&gt;&lt;font face=&quot;Tahoma&quot; size=&quot;1&quot;&gt;&lt;b style=&quot;font-size: 20px&quot;&gt;AMPLIFICADOS DE DISTRIBUIÇÃO SATELITAL - C2 H&lt;/b&gt;&lt;/font&gt;&lt;/p&gt;" style="rounded=1;whiteSpace=wrap;html=1;" parent="1" vertex="1">
          <mxGeometry x="270" y="1660" width="640" height="60" as="geometry" />
        </mxCell>
        <mxCell id="ET13ZjsiotVya5PtHg1d-9" value="&lt;p&gt;&lt;font style=&quot;font-size: 20px&quot; face=&quot;Tahoma&quot;&gt;&lt;b&gt;DISTRIBUIÇÃO SATELITAL - C3 V&lt;/b&gt;&lt;/font&gt;&lt;/p&gt;" style="rounded=1;whiteSpace=wrap;html=1;" parent="1" vertex="1">
          <mxGeometry x="270" y="1820" width="640" height="60" as="geometry" />
        </mxCell>
        <mxCell id="ET13ZjsiotVya5PtHg1d-11" value="&lt;p style=&quot;font-size: 20px&quot;&gt;&lt;font style=&quot;font-size: 20px&quot; face=&quot;Tahoma&quot;&gt;&lt;b&gt;DISTRIBUIÇÃO SATELITAL - &lt;span style=&quot;background-color: rgb(255 , 255 , 255)&quot;&gt;C3 H&lt;/span&gt;&lt;/b&gt;&lt;/font&gt;&lt;/p&gt;" style="rounded=1;whiteSpace=wrap;html=1;" parent="1" vertex="1">
          <mxGeometry x="270" y="1980" width="640" height="60" as="geometry" />
        </mxCell>
        <mxCell id="ET13ZjsiotVya5PtHg1d-13" value="" style="shape=mxgraph.cisco.wireless.satellite_dish;html=1;pointerEvents=1;dashed=0;fillColor=#036897;strokeColor=#ffffff;strokeWidth=2;verticalLabelPosition=bottom;verticalAlign=top;align=center;outlineConnect=0;rotation=35;" parent="1" vertex="1">
          <mxGeometry x="750" y="465" width="160" height="130" as="geometry" />
        </mxCell>
        <mxCell id="ET13ZjsiotVya5PtHg1d-15" value="" style="shape=mxgraph.cisco.wireless.satellite_dish;html=1;pointerEvents=1;dashed=0;fillColor=#036897;strokeColor=#ffffff;strokeWidth=2;verticalLabelPosition=bottom;verticalAlign=top;align=center;outlineConnect=0;rotation=35;" parent="1" vertex="1">
          <mxGeometry x="270" y="465" width="160" height="130" as="geometry" />
        </mxCell>
        <mxCell id="ET13ZjsiotVya5PtHg1d-16" value="" style="shape=mxgraph.cisco.wireless.satellite_dish;html=1;pointerEvents=1;dashed=0;fillColor=#036897;strokeColor=#ffffff;strokeWidth=2;verticalLabelPosition=bottom;verticalAlign=top;align=center;outlineConnect=0;rotation=35;" parent="1" vertex="1">
          <mxGeometry x="270" y="670" width="160" height="130" as="geometry" />
        </mxCell>
        <mxCell id="ET13ZjsiotVya5PtHg1d-17" value="" style="shape=mxgraph.cisco.wireless.satellite_dish;html=1;pointerEvents=1;dashed=0;fillColor=#036897;strokeColor=#ffffff;strokeWidth=2;verticalLabelPosition=bottom;verticalAlign=top;align=center;outlineConnect=0;rotation=35;" parent="1" vertex="1">
          <mxGeometry x="750" y="670" width="160" height="130" as="geometry" />
        </mxCell>
        <mxCell id="ET13ZjsiotVya5PtHg1d-24" value="&lt;p style=&quot;font-size: 20px&quot;&gt;&lt;font face=&quot;Tahoma&quot;&gt;&lt;b&gt;IRD - CISCO D9824&lt;/b&gt;&lt;/font&gt;&lt;/p&gt;" style="rounded=1;whiteSpace=wrap;html=1;" parent="1" vertex="1">
          <mxGeometry x="1370" y="1980" width="470" height="60" as="geometry" />
        </mxCell>
        <mxCell id="ET13ZjsiotVya5PtHg1d-25" value="&lt;p style=&quot;font-size: 20px&quot;&gt;&lt;font face=&quot;Tahoma&quot;&gt;&lt;b&gt;IRD - DSR-4410MD&lt;/b&gt;&lt;/font&gt;&lt;/p&gt;" style="rounded=1;whiteSpace=wrap;html=1;" parent="1" vertex="1">
          <mxGeometry x="1371" y="2140" width="470" height="60" as="geometry" />
        </mxCell>
        <mxCell id="ET13ZjsiotVya5PtHg1d-26" value="&lt;p style=&quot;font-size: 20px&quot;&gt;&lt;b style=&quot;font-family: &amp;#34;tahoma&amp;#34;&quot;&gt;IRD - DEXIN NDS3508B&lt;/b&gt;&lt;br&gt;&lt;/p&gt;" style="rounded=1;whiteSpace=wrap;html=1;" parent="1" vertex="1">
          <mxGeometry x="1371" y="2780" width="470" height="60" as="geometry" />
        </mxCell>
        <mxCell id="ET13ZjsiotVya5PtHg1d-27" value="&lt;p style=&quot;font-size: 20px&quot;&gt;&lt;font face=&quot;Tahoma&quot;&gt;&lt;b&gt;IRD - CISCO D9824&lt;/b&gt;&lt;/font&gt;&lt;/p&gt;" style="rounded=1;whiteSpace=wrap;html=1;" parent="1" vertex="1">
          <mxGeometry x="1370" y="1820" width="470" height="60" as="geometry" />
        </mxCell>
        <mxCell id="ET13ZjsiotVya5PtHg1d-28" value="&lt;p style=&quot;font-size: 20px&quot;&gt;&lt;b style=&quot;font-family: &amp;#34;tahoma&amp;#34;&quot;&gt;IRD - DEXIN NDS3508B&lt;/b&gt;&lt;br&gt;&lt;/p&gt;" style="rounded=1;whiteSpace=wrap;html=1;" parent="1" vertex="1">
          <mxGeometry x="1370" y="2620" width="470" height="60" as="geometry" />
        </mxCell>
        <mxCell id="ET13ZjsiotVya5PtHg1d-29" value="&lt;p style=&quot;font-size: 20px&quot;&gt;&lt;font face=&quot;Tahoma&quot;&gt;&lt;b&gt;IRD - DSR-4410MD&lt;/b&gt;&lt;/font&gt;&lt;/p&gt;" style="rounded=1;whiteSpace=wrap;html=1;" parent="1" vertex="1">
          <mxGeometry x="1370" y="2300" width="470" height="60" as="geometry" />
        </mxCell>
        <mxCell id="ET13ZjsiotVya5PtHg1d-30" value="&lt;p style=&quot;font-size: 20px&quot;&gt;&lt;font face=&quot;Tahoma&quot;&gt;&lt;b&gt;IRD - DEXIN NDS3508B&lt;/b&gt;&lt;/font&gt;&lt;/p&gt;" style="rounded=1;whiteSpace=wrap;html=1;" parent="1" vertex="1">
          <mxGeometry x="1370" y="2460" width="470" height="60" as="geometry" />
        </mxCell>
        <mxCell id="ET13ZjsiotVya5PtHg1d-42" value="" style="shape=mxgraph.cisco.routers.router;html=1;pointerEvents=1;dashed=0;fillColor=#036897;strokeColor=#ffffff;strokeWidth=2;verticalLabelPosition=bottom;verticalAlign=top;align=center;outlineConnect=0;aspect=fixed;" parent="1" vertex="1">
          <mxGeometry x="2780" y="2336.16" width="200" height="116.16" as="geometry" />
        </mxCell>
        <mxCell id="ET13ZjsiotVya5PtHg1d-43" value="" style="shape=mxgraph.cisco.routers.router;html=1;pointerEvents=1;dashed=0;fillColor=#036897;strokeColor=#ffffff;strokeWidth=2;verticalLabelPosition=bottom;verticalAlign=top;align=center;outlineConnect=0;" parent="1" vertex="1">
          <mxGeometry x="2505" y="1752.32" width="200" height="116.16" as="geometry" />
        </mxCell>
        <mxCell id="ET13ZjsiotVya5PtHg1d-53" value="&lt;font style=&quot;font-size: 34px&quot;&gt;&lt;b&gt;ANTENÁRIO&lt;/b&gt;&lt;/font&gt;" style="text;html=1;strokeColor=none;fillColor=none;align=center;verticalAlign=middle;whiteSpace=wrap;rounded=0;" parent="1" vertex="1">
          <mxGeometry x="475" y="100" width="230" height="100" as="geometry" />
        </mxCell>
        <mxCell id="ET13ZjsiotVya5PtHg1d-56" value="&lt;font face=&quot;Courier New&quot;&gt;&lt;span style=&quot;font-size: 30px&quot;&gt;RB - ANTENAS&lt;/span&gt;&lt;br&gt;&lt;span style=&quot;font-size: 30px&quot;&gt;IP LO0: 172.16.3.100&lt;/span&gt;&lt;/font&gt;" style="text;html=1;strokeColor=none;fillColor=none;align=center;verticalAlign=middle;whiteSpace=wrap;rounded=0;" parent="1" vertex="1">
          <mxGeometry x="2695" y="2456.16" width="370" height="100" as="geometry" />
        </mxCell>
        <mxCell id="ET13ZjsiotVya5PtHg1d-57" value="&lt;font face=&quot;Courier New&quot;&gt;&lt;span style=&quot;font-size: 30px&quot;&gt;RT - JUNIPER - MULTTV&lt;/span&gt;&lt;br&gt;&lt;span style=&quot;font-size: 30px&quot;&gt;IP: 177.91.232.37&lt;/span&gt;&lt;/font&gt;" style="text;html=1;strokeColor=none;fillColor=none;align=center;verticalAlign=middle;whiteSpace=wrap;rounded=0;" parent="1" vertex="1">
          <mxGeometry x="2410" y="1868.48" width="390" height="116.16" as="geometry" />
        </mxCell>
        <mxCell id="ET13ZjsiotVya5PtHg1d-59" value="&lt;font face=&quot;Courier New&quot;&gt;&lt;span style=&quot;font-size: 30px&quot;&gt;SW - HEWLETT PACKARD&lt;/span&gt;&lt;br&gt;&lt;span style=&quot;font-size: 30px&quot;&gt;IP: 100.198.0.253&lt;/span&gt;&lt;br&gt;&lt;/font&gt;" style="text;html=1;strokeColor=none;fillColor=none;align=center;verticalAlign=middle;whiteSpace=wrap;rounded=0;" parent="1" vertex="1">
          <mxGeometry x="2385" y="2161.74" width="370" height="95" as="geometry" />
        </mxCell>
        <mxCell id="ET13ZjsiotVya5PtHg1d-23" value="&lt;p style=&quot;font-size: 20px&quot;&gt;&lt;font face=&quot;Tahoma&quot;&gt;&lt;b&gt;IRD - CISCO D9824&lt;/b&gt;&lt;/font&gt;&lt;/p&gt;" style="rounded=1;whiteSpace=wrap;html=1;" parent="1" vertex="1">
          <mxGeometry x="1370" y="1660" width="470" height="60" as="geometry" />
        </mxCell>
        <mxCell id="ET13ZjsiotVya5PtHg1d-22" value="&lt;p style=&quot;font-size: 20px&quot;&gt;&lt;font face=&quot;Tahoma&quot;&gt;&lt;b&gt;IRD - CISCO D9824&lt;/b&gt;&lt;/font&gt;&lt;/p&gt;" style="rounded=1;whiteSpace=wrap;html=1;" parent="1" vertex="1">
          <mxGeometry x="1370" y="1500" width="470" height="60" as="geometry" />
        </mxCell>
        <mxCell id="ET13ZjsiotVya5PtHg1d-72" value="&lt;font face=&quot;Courier New&quot;&gt;&lt;span style=&quot;font-size: 30px&quot;&gt;IP GER: 10.5.1.22&lt;/span&gt;&lt;/font&gt;" style="text;html=1;strokeColor=none;fillColor=none;align=center;verticalAlign=middle;whiteSpace=wrap;rounded=0;" parent="1" vertex="1">
          <mxGeometry x="1411" y="1410" width="390" height="46.16" as="geometry" />
        </mxCell>
        <mxCell id="ET13ZjsiotVya5PtHg1d-73" value="&lt;font face=&quot;Courier New&quot;&gt;&lt;span style=&quot;font-size: 30px&quot;&gt;IP GER: 10.5.1.24&lt;/span&gt;&lt;/font&gt;" style="text;html=1;strokeColor=none;fillColor=none;align=center;verticalAlign=middle;whiteSpace=wrap;rounded=0;" parent="1" vertex="1">
          <mxGeometry x="1410" y="1730" width="390" height="46.16" as="geometry" />
        </mxCell>
        <mxCell id="ET13ZjsiotVya5PtHg1d-74" value="&lt;font face=&quot;Courier New&quot;&gt;&lt;span style=&quot;font-size: 30px&quot;&gt;IP GER: 10.5.1.25&lt;/span&gt;&lt;/font&gt;" style="text;html=1;strokeColor=none;fillColor=none;align=center;verticalAlign=middle;whiteSpace=wrap;rounded=0;" parent="1" vertex="1">
          <mxGeometry x="1410" y="1890" width="390" height="46.16" as="geometry" />
        </mxCell>
        <mxCell id="ET13ZjsiotVya5PtHg1d-75" value="&lt;font face=&quot;Courier New&quot;&gt;&lt;span style=&quot;font-size: 30px&quot;&gt;IP GER: 10.5.1.26&lt;/span&gt;&lt;/font&gt;" style="text;html=1;strokeColor=none;fillColor=none;align=center;verticalAlign=middle;whiteSpace=wrap;rounded=0;" parent="1" vertex="1">
          <mxGeometry x="1410" y="2050" width="390" height="46.16" as="geometry" />
        </mxCell>
        <mxCell id="ET13ZjsiotVya5PtHg1d-76" value="&lt;font face=&quot;Courier New&quot;&gt;&lt;span style=&quot;font-size: 30px&quot;&gt;IP GER: 10.5.1.27&lt;/span&gt;&lt;/font&gt;" style="text;html=1;strokeColor=none;fillColor=none;align=center;verticalAlign=middle;whiteSpace=wrap;rounded=0;" parent="1" vertex="1">
          <mxGeometry x="1410" y="2210" width="390" height="46.16" as="geometry" />
        </mxCell>
        <mxCell id="ET13ZjsiotVya5PtHg1d-77" value="&lt;font face=&quot;Courier New&quot;&gt;&lt;span style=&quot;font-size: 30px&quot;&gt;IP GER: 10.5.1.28&lt;/span&gt;&lt;/font&gt;" style="text;html=1;strokeColor=none;fillColor=none;align=center;verticalAlign=middle;whiteSpace=wrap;rounded=0;" parent="1" vertex="1">
          <mxGeometry x="1411" y="2370" width="390" height="46.16" as="geometry" />
        </mxCell>
        <mxCell id="ET13ZjsiotVya5PtHg1d-78" value="&lt;font face=&quot;Courier New&quot;&gt;&lt;span style=&quot;font-size: 30px&quot;&gt;IP GER: 10.5.1.29&lt;/span&gt;&lt;/font&gt;" style="text;html=1;strokeColor=none;fillColor=none;align=center;verticalAlign=middle;whiteSpace=wrap;rounded=0;" parent="1" vertex="1">
          <mxGeometry x="1410" y="2530" width="390" height="46.16" as="geometry" />
        </mxCell>
        <mxCell id="ET13ZjsiotVya5PtHg1d-79" value="&lt;font face=&quot;Courier New&quot;&gt;&lt;span style=&quot;font-size: 30px&quot;&gt;IP GER: 10.5.1.30&lt;/span&gt;&lt;/font&gt;" style="text;html=1;strokeColor=none;fillColor=none;align=center;verticalAlign=middle;whiteSpace=wrap;rounded=0;" parent="1" vertex="1">
          <mxGeometry x="1411" y="2690" width="390" height="46.16" as="geometry" />
        </mxCell>
        <mxCell id="ET13ZjsiotVya5PtHg1d-80" value="&lt;font face=&quot;Courier New&quot;&gt;&lt;span style=&quot;font-size: 30px&quot;&gt;IP GER: 10.5.1.31&lt;/span&gt;&lt;/font&gt;" style="text;html=1;strokeColor=none;fillColor=none;align=center;verticalAlign=middle;whiteSpace=wrap;rounded=0;" parent="1" vertex="1">
          <mxGeometry x="1410" y="2850" width="390" height="46.16" as="geometry" />
        </mxCell>
        <mxCell id="ET13ZjsiotVya5PtHg1d-81" value="&lt;p style=&quot;font-size: 20px&quot;&gt;&lt;font face=&quot;Tahoma&quot;&gt;&lt;b&gt;IRD - CISCO D9824&lt;/b&gt;&lt;/font&gt;&lt;/p&gt;" style="rounded=1;whiteSpace=wrap;html=1;" parent="1" vertex="1">
          <mxGeometry x="1371" y="1340" width="470" height="60" as="geometry" />
        </mxCell>
        <mxCell id="ET13ZjsiotVya5PtHg1d-82" value="&lt;font face=&quot;Courier New&quot;&gt;&lt;span style=&quot;font-size: 30px&quot;&gt;IP GER: 10.5.1.23&lt;/span&gt;&lt;/font&gt;" style="text;html=1;strokeColor=none;fillColor=none;align=center;verticalAlign=middle;whiteSpace=wrap;rounded=0;" parent="1" vertex="1">
          <mxGeometry x="1410" y="1570" width="390" height="46.16" as="geometry" />
        </mxCell>
        <mxCell id="ET13ZjsiotVya5PtHg1d-83" value="&lt;font size=&quot;1&quot;&gt;&lt;b style=&quot;font-size: 34px&quot;&gt;Amplificador de Distribuição Satelital &amp;amp; Distribuição Satelital&lt;br&gt;&lt;/b&gt;&lt;/font&gt;" style="text;html=1;strokeColor=none;fillColor=none;align=center;verticalAlign=middle;whiteSpace=wrap;rounded=0;" parent="1" vertex="1">
          <mxGeometry x="225" y="1190" width="730" height="90" as="geometry" />
        </mxCell>
        <mxCell id="ET13ZjsiotVya5PtHg1d-86" value="&lt;font size=&quot;1&quot;&gt;&lt;b style=&quot;font-size: 34px&quot;&gt;Integrated Receiver Decoder&lt;/b&gt;&lt;/font&gt;" style="text;html=1;strokeColor=none;fillColor=none;align=center;verticalAlign=middle;whiteSpace=wrap;rounded=0;" parent="1" vertex="1">
          <mxGeometry x="1411" y="1195" width="390" height="80" as="geometry" />
        </mxCell>
        <mxCell id="ET13ZjsiotVya5PtHg1d-88" value="&lt;font style=&quot;font-size: 67px&quot;&gt;&lt;b&gt;LAGO AZUL - BR 174 (KM 3)&amp;nbsp;&lt;br&gt;&lt;/b&gt;&lt;b&gt;MANAUS - AM&lt;br&gt;&lt;/b&gt;&lt;b&gt;-2.953006, -60.032522&lt;/b&gt;&lt;/font&gt;" style="text;html=1;strokeColor=none;fillColor=none;align=center;verticalAlign=middle;whiteSpace=wrap;rounded=0;" parent="1" vertex="1">
          <mxGeometry x="3680" y="10" width="970" height="450" as="geometry" />
        </mxCell>
        <mxCell id="Bz9aQ9UGnHe_9XQev82R-3" value="&lt;span style=&quot;font-size: 34px&quot;&gt;&lt;b&gt;Routers and Switches&lt;/b&gt;&lt;/span&gt;" style="text;html=1;strokeColor=none;fillColor=none;align=center;verticalAlign=middle;whiteSpace=wrap;rounded=0;" vertex="1" parent="1">
          <mxGeometry x="2680" y="1460" width="390" height="80" as="geometry" />
        </mxCell>
        <mxCell id="Bz9aQ9UGnHe_9XQev82R-2" value="" style="endArrow=none;html=1;exitX=1;exitY=0.75;exitDx=0;exitDy=0;strokeWidth=3;" edge="1" parent="1" source="ET13ZjsiotVya5PtHg1d-26">
          <mxGeometry width="50" height="50" relative="1" as="geometry">
            <mxPoint x="2030" y="2780" as="sourcePoint" />
            <mxPoint x="2410" y="2120" as="targetPoint" />
            <Array as="points">
              <mxPoint x="2200" y="2825" />
              <mxPoint x="2200" y="2120" />
              <mxPoint x="2410" y="2120" />
            </Array>
          </mxGeometry>
        </mxCell>
        <mxCell id="Bz9aQ9UGnHe_9XQev82R-4" value="" style="endArrow=none;html=1;exitX=1;exitY=0.75;exitDx=0;exitDy=0;entryX=0.104;entryY=0.671;entryDx=0;entryDy=0;entryPerimeter=0;strokeWidth=3;" edge="1" parent="1" source="ET13ZjsiotVya5PtHg1d-28" target="ET13ZjsiotVya5PtHg1d-40">
          <mxGeometry width="50" height="50" relative="1" as="geometry">
            <mxPoint x="2020" y="2630" as="sourcePoint" />
            <mxPoint x="2190" y="2060" as="targetPoint" />
            <Array as="points">
              <mxPoint x="2160" y="2665" />
              <mxPoint x="2160" y="2120" />
            </Array>
          </mxGeometry>
        </mxCell>
        <mxCell id="Bz9aQ9UGnHe_9XQev82R-5" value="" style="endArrow=none;html=1;exitX=1;exitY=0.75;exitDx=0;exitDy=0;strokeWidth=3;" edge="1" parent="1" source="ET13ZjsiotVya5PtHg1d-30">
          <mxGeometry width="50" height="50" relative="1" as="geometry">
            <mxPoint x="2060" y="2400" as="sourcePoint" />
            <mxPoint x="2410" y="2120" as="targetPoint" />
            <Array as="points">
              <mxPoint x="2120" y="2505" />
              <mxPoint x="2120" y="2120" />
              <mxPoint x="2410" y="2120" />
            </Array>
          </mxGeometry>
        </mxCell>
        <mxCell id="Bz9aQ9UGnHe_9XQev82R-6" value="" style="endArrow=none;html=1;exitX=1;exitY=0.75;exitDx=0;exitDy=0;strokeWidth=3;" edge="1" parent="1" source="ET13ZjsiotVya5PtHg1d-29">
          <mxGeometry width="50" height="50" relative="1" as="geometry">
            <mxPoint x="2060" y="2400" as="sourcePoint" />
            <mxPoint x="2420" y="2120" as="targetPoint" />
            <Array as="points">
              <mxPoint x="2080" y="2345" />
              <mxPoint x="2080" y="2120" />
            </Array>
          </mxGeometry>
        </mxCell>
        <mxCell id="Bz9aQ9UGnHe_9XQev82R-7" value="" style="endArrow=none;html=1;entryX=1;entryY=0.75;entryDx=0;entryDy=0;strokeWidth=3;" edge="1" parent="1" target="ET13ZjsiotVya5PtHg1d-25">
          <mxGeometry width="50" height="50" relative="1" as="geometry">
            <mxPoint x="2300" y="2120" as="sourcePoint" />
            <mxPoint x="1950" y="2180" as="targetPoint" />
            <Array as="points">
              <mxPoint x="2300" y="2120" />
              <mxPoint x="2040" y="2120" />
              <mxPoint x="2040" y="2185" />
            </Array>
          </mxGeometry>
        </mxCell>
        <mxCell id="Bz9aQ9UGnHe_9XQev82R-8" value="" style="endArrow=none;html=1;entryX=1;entryY=0.75;entryDx=0;entryDy=0;exitX=0.146;exitY=0.671;exitDx=0;exitDy=0;exitPerimeter=0;strokeWidth=3;" edge="1" parent="1" source="ET13ZjsiotVya5PtHg1d-40" target="ET13ZjsiotVya5PtHg1d-24">
          <mxGeometry width="50" height="50" relative="1" as="geometry">
            <mxPoint x="2200" y="2060" as="sourcePoint" />
            <mxPoint x="1970" y="2020" as="targetPoint" />
            <Array as="points">
              <mxPoint x="2040" y="2120" />
              <mxPoint x="2040" y="2025" />
            </Array>
          </mxGeometry>
        </mxCell>
        <mxCell id="Bz9aQ9UGnHe_9XQev82R-9" value="" style="endArrow=none;html=1;exitX=1;exitY=0.75;exitDx=0;exitDy=0;strokeWidth=3;" edge="1" parent="1" source="ET13ZjsiotVya5PtHg1d-27">
          <mxGeometry width="50" height="50" relative="1" as="geometry">
            <mxPoint x="2000" y="2080" as="sourcePoint" />
            <mxPoint x="2420" y="2120" as="targetPoint" />
            <Array as="points">
              <mxPoint x="2080" y="1865" />
              <mxPoint x="2080" y="2120" />
              <mxPoint x="2420" y="2120" />
            </Array>
          </mxGeometry>
        </mxCell>
        <mxCell id="Bz9aQ9UGnHe_9XQev82R-10" value="" style="endArrow=none;html=1;entryX=1;entryY=0.75;entryDx=0;entryDy=0;exitX=0.146;exitY=0.671;exitDx=0;exitDy=0;exitPerimeter=0;strokeWidth=3;" edge="1" parent="1" source="ET13ZjsiotVya5PtHg1d-40" target="ET13ZjsiotVya5PtHg1d-23">
          <mxGeometry width="50" height="50" relative="1" as="geometry">
            <mxPoint x="2210" y="2040" as="sourcePoint" />
            <mxPoint x="2250" y="1990" as="targetPoint" />
            <Array as="points">
              <mxPoint x="2120" y="2120" />
              <mxPoint x="2120" y="1705" />
            </Array>
          </mxGeometry>
        </mxCell>
        <mxCell id="Bz9aQ9UGnHe_9XQev82R-11" value="" style="endArrow=none;html=1;entryX=1;entryY=0.75;entryDx=0;entryDy=0;exitX=0.104;exitY=0.671;exitDx=0;exitDy=0;exitPerimeter=0;strokeWidth=3;" edge="1" parent="1" source="ET13ZjsiotVya5PtHg1d-40" target="ET13ZjsiotVya5PtHg1d-22">
          <mxGeometry width="50" height="50" relative="1" as="geometry">
            <mxPoint x="2210" y="1990" as="sourcePoint" />
            <mxPoint x="2240" y="1750" as="targetPoint" />
            <Array as="points">
              <mxPoint x="2160" y="2120" />
              <mxPoint x="2160" y="1545" />
            </Array>
          </mxGeometry>
        </mxCell>
        <mxCell id="Bz9aQ9UGnHe_9XQev82R-12" value="" style="endArrow=none;html=1;entryX=1;entryY=0.75;entryDx=0;entryDy=0;strokeWidth=3;" edge="1" parent="1" target="ET13ZjsiotVya5PtHg1d-81">
          <mxGeometry width="50" height="50" relative="1" as="geometry">
            <mxPoint x="2420" y="2120" as="sourcePoint" />
            <mxPoint x="2030" y="1370" as="targetPoint" />
            <Array as="points">
              <mxPoint x="2420" y="2120" />
              <mxPoint x="2200" y="2120" />
              <mxPoint x="2200" y="1385" />
            </Array>
          </mxGeometry>
        </mxCell>
        <mxCell id="ET13ZjsiotVya5PtHg1d-40" value="" style="shape=mxgraph.cisco.switches.workgroup_switch;html=1;pointerEvents=1;dashed=0;fillColor=#036897;strokeColor=#ffffff;strokeWidth=2;verticalLabelPosition=bottom;verticalAlign=top;align=center;outlineConnect=0;" parent="1" vertex="1">
          <mxGeometry x="2395" y="2046.1599999999999" width="240" height="110" as="geometry" />
        </mxCell>
      </root>
    </mxGraphModel>
  </diagram>
</mxfile>
